<svg version="1.1"
      xmlns="http://www.w3.org/2000/svg"
      xmlns:xlink="http://www.w3.org/1999/xlink"  id="snapshot-27975" width="250" height="250" viewBox="0 0 250 250"><desc>This image was made on Patterninja.com</desc><defs>
<!-- image 65608 -->
<g id="transformed-65608" data-image="65608" transform="translate(-78.90941651429965, -122.90941651429968) rotate(30, 126.90941651429965, 126.90941651429968)"><g><svg version="1.1" width="253.8188330285993px" height="253.81883302859936px" viewBox="0 0 253.8188330285993 253.81883302859936"><g id="original-65608"><svg xmlns="http://www.w3.org/2000/svg" version="1.1" viewBox="0 0 500 500" xmlns:xlink="http://www.w3.org/1999/xlink" preserveAspectRatio="xMidYMid meet">
  <path d="M210.374 167.108c24.024 2.806 52.378 8.177 65.063 31.409 9.262 13.695 17.325 28.384 28.876 40.366 20.475 10.36 40.874 22.802 55.563 40.704 18.435 27.565 12.853 67.048-8.576 91.255-23.993 21.967-58.528 32.942-90.51 24.814-20.44-4.086-40.822-16.112-62.09-9.394-19.673 5.521-39.197 14.22-60.149 11.886-19.916-.675-37.786-10.415-54.54-20.209-19.534-12.538-31.74-35.211-30.417-58.508.067-34.972 26.36-63.966 55.97-79.315 12.638-6.142 25.905-12.813 31.912-26.452 8.59-15.734 16.124-35.498 35.208-40.863 10.77-3.92 22.27-5.49 33.69-5.693z" fill-rule="evenodd" fill="rgba(255, 149, 0, 1)" stroke="rgba(255, 149, 0, 1)"/>
  <path d="M2.51 133.304c5.13-18.014 19.672-34.679 38.978-37.117 13.803-1.78 28.086 1.725 40.238 8.242 22.16 14.759 35.06 39.742 42.353 64.68 3.676 11.925 6.176 24.675 3.147 37.04-2.799 14.602-13.39 26.974-27.02 32.666-17.704 10.643-41.18 9.204-58.06-2.43-10.04-6.65-18.938-15.33-24.338-26.209C5.02 187.113-3.607 159.71 2.511 133.304z" fill-rule="evenodd" fill="rgba(255, 149, 0, 1)" stroke="rgba(255, 149, 0, 1)"/>
  <path d="M169.034.501S198.5.68 214.75 38.358c0 0 11.213 24.438 7.321 61.965 0 0-.609 37.78-23.084 53.184 0 0-30.558 27.78-65.66-9.596 0 0-24.497-26.264-29.295-63.387 0 0-5.303-38.386 18.435-61.367 0 0 20.14-18.834 46.568-18.656z" fill-rule="evenodd" fill="rgba(255, 149, 0, 1)" stroke="rgba(255, 149, 0, 1)"/>
  <path d="M313.856 6.216s36.25 10.714 32.321 52.142c0 0 2.059 33.277-17.64 63.582 0 0-19.95 37.376-46.466 41.416 0 0-29.295 9.091-50.508-35.86 0 0-15.152-51.013 8.334-85.358 0 0 27.42-50.947 73.959-35.922z" fill-rule="evenodd" fill="rgba(255, 149, 0, 1)" stroke="rgba(255, 149, 0, 1)"/>
  <path d="M394.391 108.358c17.013 5.2 29.026 21.656 30.538 39.149 1.642 15.718-2.078 31.519-7.37 46.232-8.61 21.511-24.126 40.317-43.758 52.635-14.836 8.098-33.334 4.661-46.913-4.417-5.555-2.661-8.94-7.703-11.333-13.196-9.042-17.992-10.311-39.892-2.093-58.42 6.947-17.446 15.495-35.252 30.147-47.54 11.109-10.096 25.627-18.342 41.156-16.724 3.29.334 6.534 1.11 9.626 2.281z" fill-rule="evenodd" fill="rgba(255, 149, 0, 1)" stroke="rgba(255, 149, 0, 1)"/>
</svg>
</g></svg></g></g>
<!-- /image 65608 -->
</defs><rect x="0" y="0" width="250" height="250" fill="rgba(199, 111, 0, 1)"></rect><use xlink:href="#transformed-65608" transform="translate(-250, -250)"></use><use xlink:href="#transformed-65608" transform="translate(0, -250)"></use><use xlink:href="#transformed-65608" transform="translate(250, -250)"></use><use xlink:href="#transformed-65608" transform="translate(-250, 0)"></use><use xlink:href="#transformed-65608" transform="translate(0, 0)"></use><use xlink:href="#transformed-65608" transform="translate(250, 0)"></use><use xlink:href="#transformed-65608" transform="translate(-250, 250)"></use><use xlink:href="#transformed-65608" transform="translate(0, 250)"></use><use xlink:href="#transformed-65608" transform="translate(250, 250)"></use></svg>